<?xml version="1.0" encoding="utf-8"?>
<!-- Generator: Adobe Illustrator 22.1.0, SVG Export Plug-In . SVG Version: 6.00 Build 0)  -->
<svg version="1.1" id="Layer_1" xmlns="http://www.w3.org/2000/svg" xmlns:xlink="http://www.w3.org/1999/xlink" x="0px" y="0px"
	 viewBox="0 0 771 658.1" style="enable-background:new 0 0 771 658.1;" xml:space="preserve">
<style type="text/css">
	.st0{fill:#FFFFFF;}
	.st1{opacity:0.3;}
	.st2{fill:#65D1E1;}
	.st3{opacity:0.5;}
	.st4{fill:#6CD2E2;}
	.st5{fill:#E0F4F7;}
	.st6{fill:#00C4D9;}
	.st7{fill:#80D7E5;}
	.st8{fill:#17C5DA;}
	.st9{fill:url(#SVGID_1_);}
	.st10{fill:url(#SVGID_2_);}
	.st11{fill:#57CEDF;}
	.st12{fill:#48CBDD;}
	.st13{fill:#D6F1F5;}
	.st14{fill:url(#SVGID_3_);}
	.st15{opacity:0.5;fill:url(#SVGID_4_);}
	.st16{fill:#A0E0EB;}
	.st17{fill:#BDE9F0;}
	.st18{fill:#DEF4F7;}
	.st19{fill:#6ED3E2;}
	.st20{fill:#B7E7EF;}
	.st21{fill:#63D0E1;}
	.st22{fill:#71D4E3;}
	.st23{fill:#8CDBE7;}
	.st24{fill:#D2F0F5;}
	.st25{fill:#AAE3ED;}
	.st26{fill:#B9E8EF;}
	.st27{fill:#CBEDF3;}
	.st28{fill:#E2F5F8;}
	.st29{fill:#88D9E6;}
	.st30{fill:#F8FCFD;}
	.st31{fill:#E4BEDB;}
</style>
<g>
	<g id="XMLID_5_">
		<g id="XMLID_2_">
			<g id="XMLID_87_">
				<path id="XMLID_92_" class="st0" d="M270.1,278.3h26.8v70.9c0,8.7-2.4,16-7,21.5c-4.6,5.5-11.1,8.3-19.3,8.3
					c-8.2,0-15.4-3.3-21.2-9.7l-1.5-1.6v8.5l0.3,0.3c6.6,5.6,13.9,8.5,21.8,8.5h1.4c9.5,0,17.3-3.4,23.2-10.1
					c5.9-6.7,8.8-15.5,8.8-26.2v-76.2h-33.3V278.3z"/>
				<path id="XMLID_91_" class="st0" d="M483.6,284.2v35.4c0,6.4-2.4,12-7.1,16.8c-4.7,4.7-10.3,7.1-16.7,7.1
					c-6.4,0-12-2.4-16.7-7.1c-4.7-4.7-7.1-10.4-7.1-16.8v-38.8h-6.3v38.8c0,8.1,3,15.2,8.8,21c5.8,5.8,13,8.7,21.2,8.7
					c10.8,0,18.9-4,23.9-11.8v16.3c0,7-2.5,13-7.6,18c-5,5-11.1,7.5-17.9,7.5c-4.6,0-9.1-1.3-13.4-4c-4.3-2.7-8.2-6.2-10.8-10.7
					l-3.9-6.2c0,0-0.8,2.5-1.4,3.7c-0.6,1.2-1.7,2.8-1.7,2.8l5.7,7.8c6.2,8.2,14.8,12.4,25.4,12.4c8.9,0,16.5-3.1,22.6-9.2
					c6.1-6.1,9.2-13.7,9.2-22.5v-69.1H483.6z"/>
				<path id="XMLID_90_" class="st0" d="M368.6,356.4c2-1.5,3.8-3.3,5.4-5.2c0.8-1,1.5-2,2.2-3v13.6l0,0h6.3v-39h-6.3l0.3,6
					c0,5.4-1.3,10.3-4,14.7c-1.2,2-2.7,3.9-4.4,5.7c-1.4,1.4-2.8,2.7-4.4,3.7c-0.4,0.3-0.8,0.5-1.2,0.8c-0.8,0.5-1.6,0.9-2.4,1.3
					c-0.8,0.4-1.7,0.8-2.5,1.1c-0.9,0.3-1.7,0.6-2.6,0.8c-2.2,0.6-4.6,0.8-7,0.8c-2.4,0-4.8-0.3-7-0.8c-1.3-0.3-2.7-0.8-3.9-1.3
					c-0.8-0.4-1.7-0.8-2.5-1.2c-2.4-1.3-4.7-3.1-6.9-5.2c-2.1-2.1-3.9-4.4-5.2-6.9c-2.2-4.1-3.4-8.5-3.4-13.4
					c0-7.8,2.9-14.6,8.6-20.4c1.4-1.4,2.9-2.7,4.5-3.8c0.8-0.5,1.6-1,2.4-1.5c0.8-0.5,1.6-0.9,2.5-1.2c3.4-1.5,7-2.2,10.9-2.2
					c4.6,0,8.9,1.1,12.7,3.1l0,0.1l0.8,0.3c0.1,0,0.2,0.1,0.2,0.1c0.1,0,0.2,0.1,0.2,0.1c0.3,0.2,0.7,0.4,1,0.6
					c0.3,0.2,0.7,0.4,1,0.7c0.7,0.5,1.3,1,1.9,1.5c0,0,0.1,0,0.1,0.1c0.3,0.3,0.7,0.6,1,0.9c0.3,0.3,0.7,0.6,1,1
					c1.1,1.1,2,2.2,2.6,2.8l0.2,0.3c0,0,0.2-0.2,0.6-0.4c0.3-0.2,0.7-0.5,1.3-0.8c0.2-0.1,0.4-0.2,0.6-0.4c1.8-1,3-1.3,3-1.3
					l-0.6-0.7c0,0-1.1-1.2-2.8-2.8c-0.6-0.5-1.2-1.1-1.8-1.7c-1.5-1.4-3.2-2.9-5.2-4.1c-5.7-3.3-11.7-5-18-5
					c-9.5,0-17.8,3.4-24.6,10.2c-2.1,2.1-3.9,4.4-5.4,6.8c-3.2,5.3-4.9,11.2-4.9,17.7c0,5.9,1.4,11.3,4,16.2c0.5,1,1.1,1.9,1.8,2.9
					c0.6,0.9,1.3,1.8,2.1,2.7c0.7,0.9,1.5,1.8,2.4,2.6c6.8,6.8,15.1,10.2,24.6,10.2c3.1,0,6.2-0.4,9.1-1.2c2.9-0.8,5.8-2,8.5-3.6
					C366.5,357.8,367.6,357.1,368.6,356.4z"/>
			</g>
			<path id="XMLID_94_" class="st0" d="M415.7,319.4c-1.1-1.1-2.2-2.1-3.4-3c-0.6-0.5-1.2-0.9-1.8-1.3c-0.1,0-0.1-0.1-0.2-0.1
				l7.7-4.3l-2.9-6.2l-4.8-2.2l-4.8-2.2l-6.6,1.9l1.8,8.5c-0.1,0-0.1,0-0.2-0.1c0,0-4.4-1.4-10.4-1.3c-3.4,0.1-6.8,0.6-9.9,1.6
				c-7,2.2-13.1,6.6-17.5,12.6c-0.4,0.6-0.8,1.1-1.2,1.7c-0.2,0.3-0.4,0.6-0.6,0.9c-0.5,0.8-0.9,1.5-1.3,2.3l-0.4,0.8
				c-1,2.4-1.5,5-1.9,7.4c-0.1,0.6-0.2,1.2-0.2,1.7c-0.1,0.9-0.2,1.7-0.2,2.5c0,0.5,0,1.1-0.1,1.6c0,1.5,0,2.9,0.1,4
				c0,0.4,0.1,0.7,0.1,1.1c0,0.2,0,0.3,0.1,0.5c0.1,1.2,0.3,2,0.3,2.1l0.4,2.3c0,0,0.2,0,0.5-0.1c0.2-0.1,0.5-0.2,0.8-0.3
				c0.2-0.1,0.3-0.1,0.5-0.2c0.4-0.1,0.7-0.3,1.1-0.5c0.6-0.4,1.2-0.7,1.5-1c0.1-0.1,0.2-0.2,0.3-0.3c0.2-0.2,0.4-0.3,0.5-0.4
				c0.1-0.1,0.2-0.2,0.2-0.2l0-0.1c0,0-0.2-1.2-0.4-3c0-0.3,0-0.7-0.1-1c0-0.4,0-0.8,0-1.2c0-2,0.1-4.5,0.5-7
				c0.1-0.8,0.3-1.5,0.5-2.3c0.1-0.5,0.3-1,0.5-1.6s0.4-1,0.6-1.5l0.2-0.4c0.3-0.7,0.7-1.3,1.1-1.9c5.3-8.7,14.6-13.9,24.8-13.9
				c7.7,0,15,3,20.5,8.5c3.1,3.1,5.4,6.7,6.8,10.7c0.3,0.9,0.6,1.8,0.8,2.7c0.1,0.5,0.2,0.9,0.3,1.4c0.2,0.9,0.3,1.9,0.4,2.8
				c0.1,1,0.1,1.9,0.1,2.9c0,14.8-11.2,27.1-25.6,28.8l0-0.1c-0.8,0.1-1.6,0.2-2.4,0.3c-0.3,0-0.6,0-1,0v0
				c-13.3,0.6-25.5-8-25.6-8.1h-1.7v0h-2.9v0h-1.7v1.2v71.6h6.3v-57.2v-7.3v-1.2c4.8,2.7,13.9,7.1,24.2,7.1c0.5,0,1,0,1.4,0v0h0
				c19.4,0,35.1-15.8,35.1-35.1C425.9,334.9,422.3,326,415.7,319.4z"/>
		</g>
		<g id="XMLID_6_">
			<path id="XMLID_7_" class="st0" d="M387.7,404.4c0,0.6-0.1,1.1-0.4,1.6c-0.2,0.5-0.5,0.9-0.9,1.3s-0.9,0.6-1.4,0.8
				s-1.1,0.3-1.7,0.3H376v-15.6h7.5c0.5,0,1,0.1,1.5,0.4s0.8,0.5,1.1,0.9c0.3,0.4,0.5,0.8,0.7,1.3c0.2,0.5,0.3,1,0.3,1.4
				c0,0.8-0.2,1.5-0.6,2.2s-0.9,1.1-1.7,1.5c0.9,0.3,1.6,0.8,2.1,1.5C387.5,402.6,387.7,403.4,387.7,404.4z M377.5,394.1v5.8h5.4
				c0.4,0,0.7-0.1,1.1-0.2s0.6-0.4,0.8-0.6c0.2-0.3,0.4-0.6,0.6-0.9s0.2-0.7,0.2-1.1c0-0.4-0.1-0.8-0.2-1.1
				c-0.1-0.4-0.3-0.7-0.5-0.9c-0.2-0.3-0.5-0.5-0.8-0.6c-0.3-0.2-0.6-0.2-1-0.2H377.5z M386.2,404.1c0-0.4-0.1-0.8-0.2-1.1
				c-0.1-0.4-0.3-0.7-0.6-0.9c-0.2-0.3-0.5-0.5-0.9-0.7c-0.3-0.2-0.7-0.3-1.1-0.3h-6v5.9h5.8c0.4,0,0.8-0.1,1.1-0.2
				c0.3-0.2,0.6-0.4,0.9-0.6c0.3-0.3,0.5-0.6,0.6-0.9S386.2,404.5,386.2,404.1z"/>
			<path id="XMLID_11_" class="st0" d="M396.9,408.5c-1.1,0-2.1-0.2-3-0.7s-1.7-1-2.3-1.8c-0.6-0.7-1.1-1.6-1.5-2.5
				s-0.5-1.9-0.5-2.9c0-1,0.2-2,0.6-3s0.9-1.8,1.6-2.5c0.7-0.7,1.4-1.3,2.3-1.7c0.9-0.4,1.9-0.6,2.9-0.6c1.1,0,2.1,0.2,3,0.7
				s1.7,1.1,2.3,1.8c0.6,0.7,1.1,1.6,1.5,2.5c0.4,0.9,0.5,1.9,0.5,2.9c0,1-0.2,2-0.6,3c-0.4,1-0.9,1.8-1.5,2.5
				c-0.7,0.7-1.4,1.3-2.3,1.7S398,408.5,396.9,408.5z M391.1,400.6c0,0.9,0.1,1.7,0.4,2.5c0.3,0.8,0.7,1.5,1.2,2.1s1.1,1.1,1.8,1.5
				c0.7,0.4,1.5,0.5,2.4,0.5c0.9,0,1.7-0.2,2.4-0.6c0.7-0.4,1.3-0.9,1.8-1.5c0.5-0.6,0.9-1.3,1.2-2.1s0.4-1.6,0.4-2.4
				c0-0.9-0.1-1.7-0.4-2.5c-0.3-0.8-0.7-1.5-1.2-2.1c-0.5-0.6-1.1-1.1-1.8-1.4s-1.5-0.5-2.3-0.5c-0.9,0-1.7,0.2-2.4,0.6
				c-0.7,0.4-1.3,0.9-1.8,1.5c-0.5,0.6-0.9,1.3-1.2,2.1C391.3,399,391.1,399.8,391.1,400.6z"/>
			<path id="XMLID_14_" class="st0" d="M407.1,408.4v-15.6h5.3c1.2,0,2.3,0.2,3.3,0.6c0.9,0.4,1.7,1,2.3,1.7
				c0.6,0.7,1.1,1.5,1.4,2.5c0.3,0.9,0.5,2,0.5,3c0,1.2-0.2,2.3-0.5,3.2c-0.4,1-0.9,1.8-1.5,2.5c-0.7,0.7-1.4,1.2-2.4,1.6
				c-0.9,0.4-1.9,0.6-3.1,0.6H407.1z M418.4,400.6c0-0.9-0.1-1.8-0.4-2.6c-0.3-0.8-0.6-1.5-1.2-2c-0.5-0.6-1.1-1-1.9-1.3
				s-1.6-0.5-2.5-0.5h-3.8V407h3.8c1,0,1.8-0.2,2.6-0.5c0.7-0.3,1.4-0.8,1.9-1.4c0.5-0.6,0.9-1.3,1.1-2
				C418.3,402.4,418.4,401.5,418.4,400.6z"/>
			<path id="XMLID_17_" class="st0" d="M427.2,392.8h1.3l6.5,15.6h-1.6l-2-4.9h-7l-2,4.9h-1.7L427.2,392.8z M431,402.3l-3.1-7.7
				l-3.2,7.7H431z"/>
			<path id="XMLID_20_" class="st0" d="M446.1,395.7c-0.4-0.5-1-0.9-1.8-1.2c-0.7-0.3-1.6-0.5-2.5-0.5c-1.4,0-2.4,0.3-3,0.8
				s-0.9,1.2-0.9,2.1c0,0.5,0.1,0.9,0.3,1.2c0.2,0.3,0.4,0.6,0.8,0.8c0.4,0.2,0.8,0.4,1.4,0.6c0.5,0.2,1.2,0.3,1.9,0.5
				c0.8,0.2,1.6,0.4,2.3,0.6c0.7,0.2,1.2,0.5,1.7,0.8c0.5,0.3,0.8,0.7,1.1,1.2c0.2,0.5,0.4,1.1,0.4,1.8c0,0.7-0.1,1.3-0.4,1.9
				c-0.3,0.5-0.7,1-1.2,1.3c-0.5,0.4-1.1,0.6-1.8,0.8c-0.7,0.2-1.4,0.3-2.3,0.3c-2.4,0-4.5-0.8-6.3-2.3l0.8-1.3
				c0.3,0.3,0.6,0.6,1,0.8c0.4,0.3,0.8,0.5,1.3,0.7c0.5,0.2,1,0.4,1.5,0.5c0.5,0.1,1.1,0.2,1.7,0.2c1.2,0,2.2-0.2,2.9-0.7
				c0.7-0.4,1-1.1,1-2c0-0.5-0.1-0.9-0.3-1.2c-0.2-0.3-0.5-0.6-0.9-0.9c-0.4-0.2-0.9-0.5-1.5-0.6c-0.6-0.2-1.3-0.4-2-0.5
				c-0.8-0.2-1.5-0.4-2.2-0.6c-0.6-0.2-1.1-0.5-1.6-0.8c-0.4-0.3-0.7-0.7-1-1.1c-0.2-0.4-0.3-1-0.3-1.6c0-0.7,0.1-1.4,0.4-1.9
				s0.7-1,1.2-1.4s1.1-0.7,1.8-0.9c0.7-0.2,1.4-0.3,2.2-0.3c1,0,2,0.2,2.8,0.5s1.6,0.8,2.2,1.3L446.1,395.7z"/>
			<path id="XMLID_22_" class="st0" d="M376,434.8v-15.6h10.3v1.4h-8.7v5.7h7.3v1.3h-7.3v7.2H376z"/>
			<path id="XMLID_24_" class="st0" d="M399.4,433.4v1.4h-10.5v-15.6h10.3v1.4h-8.8v5.6h7.6v1.3h-7.6v6H399.4z"/>
			<path id="XMLID_26_" class="st0" d="M402.3,434.8v-15.6h1.5v14.3h9v1.4H402.3z"/>
			<path id="XMLID_28_" class="st0" d="M415.2,434.8v-15.6h1.5v15.6H415.2z"/>
			<path id="XMLID_30_" class="st0" d="M419.6,426.9c0-0.9,0.2-1.9,0.5-2.8s0.8-1.8,1.4-2.5c0.6-0.7,1.4-1.3,2.3-1.8
				c0.9-0.5,2-0.7,3.1-0.7c1.4,0,2.6,0.3,3.6,0.9s1.7,1.5,2.2,2.5l-1.2,0.7c-0.2-0.5-0.6-0.9-0.9-1.3c-0.4-0.4-0.7-0.6-1.2-0.9
				c-0.4-0.2-0.8-0.4-1.3-0.5c-0.4-0.1-0.9-0.1-1.3-0.1c-0.9,0-1.8,0.2-2.5,0.6c-0.7,0.4-1.3,0.9-1.8,1.5c-0.5,0.6-0.9,1.3-1.1,2.1
				c-0.2,0.8-0.4,1.6-0.4,2.3c0,0.9,0.2,1.7,0.5,2.5s0.7,1.5,1.2,2.1c0.5,0.6,1.1,1.1,1.8,1.5c0.7,0.4,1.5,0.5,2.3,0.5
				c0.4,0,0.9-0.1,1.4-0.2s0.9-0.3,1.3-0.5s0.8-0.5,1.2-0.9c0.4-0.4,0.7-0.8,0.9-1.3l1.3,0.7c-0.2,0.6-0.6,1.1-1.1,1.6
				c-0.5,0.4-1,0.8-1.5,1.1c-0.6,0.3-1.1,0.5-1.8,0.7c-0.6,0.2-1.2,0.2-1.8,0.2c-1.1,0-2.1-0.2-2.9-0.7c-0.9-0.5-1.7-1.1-2.3-1.8
				c-0.6-0.8-1.1-1.6-1.5-2.6C419.8,428.9,419.6,427.9,419.6,426.9z"/>
			<path id="XMLID_32_" class="st0" d="M446.2,433.4v1.4h-10.5v-15.6H446v1.4h-8.8v5.6h7.6v1.3h-7.6v6H446.2z"/>
			<path id="XMLID_34_" class="st0" d="M457.9,422.1c-0.4-0.5-1-0.9-1.8-1.2c-0.7-0.3-1.6-0.5-2.5-0.5c-1.4,0-2.4,0.3-3,0.8
				s-0.9,1.2-0.9,2.1c0,0.5,0.1,0.9,0.3,1.2c0.2,0.3,0.4,0.6,0.8,0.8c0.4,0.2,0.8,0.4,1.4,0.6c0.5,0.2,1.2,0.3,1.9,0.5
				c0.8,0.2,1.6,0.4,2.3,0.6c0.7,0.2,1.2,0.5,1.7,0.8c0.5,0.3,0.8,0.7,1.1,1.2c0.2,0.5,0.4,1.1,0.4,1.8c0,0.7-0.1,1.3-0.4,1.9
				c-0.3,0.5-0.7,1-1.2,1.3c-0.5,0.4-1.1,0.6-1.8,0.8c-0.7,0.2-1.4,0.3-2.3,0.3c-2.4,0-4.5-0.8-6.3-2.3l0.8-1.3
				c0.3,0.3,0.6,0.6,1,0.8c0.4,0.3,0.8,0.5,1.3,0.7c0.5,0.2,1,0.4,1.5,0.5c0.5,0.1,1.1,0.2,1.7,0.2c1.2,0,2.2-0.2,2.9-0.7
				c0.7-0.4,1-1.1,1-2c0-0.5-0.1-0.9-0.3-1.2c-0.2-0.3-0.5-0.6-0.9-0.9c-0.4-0.2-0.9-0.5-1.5-0.6c-0.6-0.2-1.3-0.4-2-0.5
				c-0.8-0.2-1.5-0.4-2.2-0.6c-0.6-0.2-1.1-0.5-1.6-0.8c-0.4-0.3-0.7-0.7-1-1.1c-0.2-0.4-0.3-1-0.3-1.6c0-0.7,0.1-1.4,0.4-1.9
				s0.7-1,1.2-1.4s1.1-0.7,1.8-0.9c0.7-0.2,1.4-0.3,2.2-0.3c1,0,2,0.2,2.8,0.5s1.6,0.8,2.2,1.3L457.9,422.1z"/>
		</g>
	</g>
	<g class="st1">
		<path class="st2" d="M119.7,542c-6.7,0-12.2,5.5-12.2,12.2V565c0,6.7,5.5,12.2,12.2,12.2l491.3,0c6.7,0,12.2-5.5,12.2-12.2v-10.8
			c0-6.7-5.5-12.2-12.2-12.2L119.7,542z"/>
	</g>
	<g class="st3">
		<path class="st2" d="M169,631c-3.1,1.1-3,2.1,0.4,2.2l32.8,0.4c3.3,0,8.6-1.1,11.6-2.5l25-11.7c3-1.4,2.8-2.6-0.6-2.6h-23.8
			c-3.3,0-8.7,0.9-11.8,2.1L169,631z"/>
	</g>
	<g class="st3">
		<path class="st2" d="M298.2,651.1c1.6,2.9,0.2,5.4-3.1,5.4l-32.8,0.4c-3.3,0-6.8-2.6-7.6-5.8l-5.2-20c-0.8-3.2,1.2-5.9,4.5-5.9
			h23.8c3.3,0,7.4,2.4,9,5.3L298.2,651.1z"/>
	</g>
	<g class="st3">
		<path class="st2" d="M556.1,637.8c3.2,0.8,3.2,1.9-0.1,2.5l-19.4,3.1c-3.3,0.5-8.7,0.4-12-0.3l-47.7-9.8c-3.3-0.7-3.2-1.5,0.1-1.8
			l33.7-3.1c3.3-0.3,8.7,0.1,12,0.9L556.1,637.8z"/>
	</g>
	<g class="st3">
		<path class="st2" d="M572.7,607.6c1.7,0,3,1.4,3,3v5.2c0,1.7-1.4,3-3,3h-76.3c-1.7,0-1.7-0.3-0.1-0.7l39.9-9.8
			c1.6-0.4,4.3-0.7,6-0.7H572.7z"/>
	</g>
	<g class="st3">
		<path class="st2" d="M436.7,639.3c3.3,0,3.5-1,0.4-2.2L403.6,625c-3.1-1.1-8.5-2.1-11.8-2.1h-2.5c-3.3,0-8.4-0.7-11.3-1.7
			c-2.9-0.9-7.9-1-11.1-0.2l-40.3,10.2c-3.2,0.8-3.3,2.4-0.1,3.4l15.5,5.2c3.2,1.1,8.4,1.3,11.7,0.5l24.3-5.8
			c3.3-0.8,8.4-0.3,11.4,1.2l3.1,1.5c3,1.4,8.2,2.5,11.6,2.5L436.7,639.3z"/>
	</g>
	<g>
		<path class="st4" d="M362.8,281L203.1,292l2.6-44.3c0.8-7.1,2.5-20.2,4.3-28.4l2.6-11.7l11.7-2.6c18.8-4.2,76.5-12.8,135.2-12.9
			l0.4,0c61.7,0,121.5,8.7,140.8,12.9l11.8,2.6l2.7,11.8c1.8,8.2,3.5,21.3,4.3,28.3l2.6,44.3L362.8,281z"/>
		<path class="st5" d="M216.4,274.5c1.3-10.8,2.7-52.3,4-58.1c17.2-3.8,79.8-12.6,139.2-12.6h0.4c62.4,0,127.3,8.8,145,12.7
			c1.3,5.8,2.8,47.3,4,58.1H216.4z"/>
		<rect x="131.8" y="498.2" class="st6" width="465.7" height="24"/>
		<path class="st6" d="M184.9,465.5h-20.4h-13.3h-20.4c-5.2,0-9.5,4.2-9.5,9.5v69.5c0,19,14.4,26.2,26.2,26.2h3.7h13.3h3.7
			c11.8,0,26.2-7.2,26.2-26.2V475C194.4,469.8,190.1,465.5,184.9,465.5z"/>
		<g>
			<path class="st7" d="M184.8,514.1c0,6.6-5.4,12-12,12c-6.6,0-12-5.4-12-12c0-6.6,5.4-12,12-12
				C179.4,502.1,184.8,507.4,184.8,514.1z"/>
			<path class="st8" d="M181.1,514.1c0,4.6-3.7,8.3-8.3,8.3c-4.6,0-8.3-3.7-8.3-8.3c0-4.6,3.7-8.3,8.3-8.3
				C177.4,505.8,181.1,509.5,181.1,514.1z"/>
		</g>
		<path class="st6" d="M601.5,465.5h-20.4h-13.3h-20.4c-5.2,0-9.5,4.2-9.5,9.5v69.5c0,19,14.4,26.2,26.2,26.2h3.7h13.3h3.7
			c11.8,0,26.2-7.2,26.2-26.2V475C611,469.8,606.8,465.5,601.5,465.5z"/>
		<linearGradient id="SVGID_1_" gradientUnits="userSpaceOnUse" x1="717.9009" y1="275.4761" x2="-39.022" y2="485.6569">
			<stop  offset="0" style="stop-color:#99DEE9"/>
			<stop  offset="1" style="stop-color:#85D9E6"/>
		</linearGradient>
		<path class="st9" d="M149.9,349.6l11.7,162.7c0,0-16.7,14.6-38.5,8.4c-14-4-16.6-23.4-18.4-32.6c-5.9-29.6-2.7-99.9,15.9-123.8
			C136,344.6,149.9,349.6,149.9,349.6z"/>
		<linearGradient id="SVGID_2_" gradientUnits="userSpaceOnUse" x1="750.3661" y1="392.3917" x2="-6.5573" y2="602.5727">
			<stop  offset="0" style="stop-color:#99DEE9"/>
			<stop  offset="1" style="stop-color:#85D9E6"/>
		</linearGradient>
		<path class="st10" d="M583.1,349.6l-11.7,162.7c0,0,16.7,14.6,38.5,8.4c14-4,16.6-23.4,18.4-32.6c5.9-29.6,2.7-99.9-15.9-123.8
			C597.1,344.6,583.1,349.6,583.1,349.6z"/>
		<path class="st11" d="M107,499c1,3.9,2.4,8,4.4,11.6h20.4h29.7l410.1,0h26h24c2-3.6,3.4-7.7,4.4-11.6H107z"/>
		<path class="st12" d="M169.7,320.6h391.5l0.1-0.6c0,0,0.4-33.2-18.8-43.8c-38.2-21-165.6-25.1-176.7-25.4v0h-0.8
			c0,0-138.5,4.4-176.7,25.4c-19.2,10.6-18.8,43.8-18.8,43.8L169.7,320.6z"/>
		<path class="st13" d="M542.6,286.3c-38.2-21-165.6-25.1-176.7-25.4v0h-0.8c0,0-138.5,4.4-176.7,25.4
			c-12.6,6.9-16.7,23.6-18.1,34.3h390.4C559.3,309.9,555.2,293.2,542.6,286.3z"/>
		<polygon class="st4" points="149.9,349.6 157,343.3 213.1,457.9 153.3,457.9 		"/>
		<polygon class="st4" points="583.1,349.6 576,343.3 520,457.9 579.8,457.9 		"/>
		<linearGradient id="SVGID_3_" gradientUnits="userSpaceOnUse" x1="780.4341" y1="363.6066" x2="780.9411" y2="363.6066">
			<stop  offset="4.174660e-03" style="stop-color:#88D9E6"/>
			<stop  offset="1" style="stop-color:#85D9E6"/>
		</linearGradient>
		<path class="st14" d="M556,296.5c-40.8-22.5-177.1-26.8-189-27.2v0h-0.8c0,0-148.2,4.7-189,27.2c-20.5,11.3-20.1,46.8-20.1,46.8
			l13.8,114.6h195.3h0.8l195.3,0L576,343.3C576,343.3,576.4,307.8,556,296.5z"/>
		<path class="st4" d="M154.8,357.3c1.2-1.4,1.4-20.4,3.5-3.1c2.1,17.4,33,88.2,65.6,89.1v15l-60.6,0L154.8,357.3z"/>
		<path class="st4" d="M549.9,425.3h-5v-27.4c0-0.1,0-0.2,0-0.4c0-0.1,0-0.2,0-0.4c0-5.7-4.6-10.3-10.3-10.3
			c-5.7,0-10.3,4.6-10.3,10.3c0,0.1,0,0.2,0,0.4c0,0.1,0,0.2,0,0.4v27.4h-5c-3.2,0-5.8,2.6-5.8,5.8v12.5c0,3.2,2.6,5.8,5.8,5.8h5.3
			c0.8,2.3,2.9,4,5.5,4h8.9c2.6,0,4.8-1.7,5.5-4h5.3c3.2,0,5.8-2.6,5.8-5.8v-12.5C555.8,427.9,553.1,425.3,549.9,425.3z"/>
		<path class="st4" d="M208.3,425.3h-5v-27.4c0-0.1,0-0.2,0-0.4c0-0.1,0-0.2,0-0.4c0-5.7-4.6-10.3-10.3-10.3
			c-5.7,0-10.3,4.6-10.3,10.3c0,0.1,0,0.2,0,0.4c0,0.1,0,0.2,0,0.4v27.4h-5c-3.2,0-5.8,2.6-5.8,5.8v12.5c0,3.2,2.6,5.8,5.8,5.8h5.3
			c0.8,2.3,2.9,4,5.5,4h8.9c2.6,0,4.8-1.7,5.5-4h5.3c3.2,0,5.8-2.6,5.8-5.8v-12.5C214.1,427.9,211.5,425.3,208.3,425.3z"/>
		<linearGradient id="SVGID_4_" gradientUnits="userSpaceOnUse" x1="570.3941" y1="206.584" x2="101.8867" y2="531.9553">
			<stop  offset="5.449750e-02" style="stop-color:#F4FBFC"/>
			<stop  offset="0.8119" style="stop-color:#F4FBFC"/>
			<stop  offset="1" style="stop-color:#00BED6"/>
		</linearGradient>
		<path class="st15" d="M366.9,281c-0.1,0-0.1,0-0.4,0c-0.3,0-0.4,0-0.4,0s-142.2,3.7-142.2,14.2c0,12.7,16.6,90.8,30.1,120.3
			c5.7,12.4,18.4,23.7,33.9,23.7c9.2,0,148.1,0,157.2,0c15.5,0,28.2-11.3,33.9-23.7c13.5-29.5,30.1-107.6,30.1-120.3
			C509.1,284.7,378.6,281.8,366.9,281z"/>
		<path class="st4" d="M233.6,432.9c0,7.4,53.4,16,137.8,16s130.7-5,130.7-14.1c0,0,25.2,20.1,63.2,20.1l-3,13.4l-404.4,0
			c0,0-50.6-14.2,3.8-14.2C216,454.1,233.6,432.9,233.6,432.9z"/>
		<path class="st4" d="M502.2,497.2c0,5.1-4.1-8-9.2-8l0,0c-5.1,0-9.2,13-9.2,8v-70.1c0-5.1,4.1-9.2,9.2-9.2l0,0
			c5.1,0,9.2,4.1,9.2,9.2V497.2z"/>
		<path class="st4" d="M236.7,497.2c0,5.1-4.1-13.5-9.2-13.5v2.8c-5.1,0-9.2,15.8-9.2,10.7v-70.1c0-5.1,4.1-9.2,9.2-9.2l0,0
			c5.1,0,9.2,4.1,9.2,9.2L236.7,497.2z"/>
		<path class="st13" d="M636.9,489.3v-12.4c0-10.5-8.5-19-19-19l-500.1,0c-10.5,0-19,8.5-19,19v12.4L636.9,489.3z"/>
		<path class="st0" d="M615.8,463.1H120c-10.4,0-18.8,8.4-18.8,18.8v7c0-10.4,8.4-18.8,18.8-18.8h495.8c10.4,0,18.8,8.4,18.8,18.8
			v-7C634.6,471.5,626.2,463.1,615.8,463.1z"/>
		<path class="st16" d="M98.9,489.2v2.7c0,3.9,3.2,7.1,7.1,7.1h523.8c3.9,0,7.1-3.2,7.1-7.1v-2.7L98.9,489.2z"/>
		<g>
			<path class="st17" d="M167.9,510.9c0,2.6-2.1,4.7-4.7,4.7h-22.9c-2.6,0-4.7-2.1-4.7-4.7v-2.1c0-2.6,2.1-4.7,4.7-4.7h22.9
				c2.6,0,4.7,2.1,4.7,4.7V510.9z"/>
			<g>
				<path class="st18" d="M145.4,509.9c0,1.8-1.5,3.2-3.2,3.2c-1.8,0-3.3-1.5-3.3-3.2c0-1.8,1.5-3.3,3.3-3.3
					C144,506.6,145.4,508.1,145.4,509.9z"/>
				<path class="st18" d="M154.8,509.9c0,1.8-1.5,3.2-3.3,3.2c-1.8,0-3.2-1.5-3.2-3.2c0-1.8,1.5-3.3,3.2-3.3
					C153.4,506.6,154.8,508.1,154.8,509.9z"/>
				<path class="st18" d="M164.5,509.9c0,1.8-1.5,3.2-3.3,3.2c-1.8,0-3.2-1.5-3.2-3.2c0-1.8,1.5-3.3,3.2-3.3
					C163,506.6,164.5,508.1,164.5,509.9z"/>
			</g>
		</g>
		<g>
			<path class="st17" d="M584.4,512c0,2.6-2.1,4.7-4.7,4.7h-22.9c-2.6,0-4.7-2.1-4.7-4.7v-2.1c0-2.6,2.1-4.7,4.7-4.7h22.9
				c2.6,0,4.7,2.1,4.7,4.7V512z"/>
			<g>
				<path class="st18" d="M562,510.9c0,1.8-1.5,3.3-3.3,3.3c-1.8,0-3.3-1.5-3.3-3.3c0-1.8,1.5-3.3,3.3-3.3
					C560.5,507.7,562,509.1,562,510.9z"/>
				<path class="st18" d="M571.4,510.9c0,1.8-1.5,3.3-3.3,3.3c-1.8,0-3.2-1.5-3.2-3.3c0-1.8,1.5-3.3,3.2-3.3
					C569.9,507.7,571.4,509.1,571.4,510.9z"/>
				<path class="st18" d="M581,510.9c0,1.8-1.5,3.3-3.3,3.3c-1.8,0-3.3-1.5-3.3-3.3c0-1.8,1.5-3.3,3.3-3.3
					C579.6,507.7,581,509.1,581,510.9z"/>
			</g>
		</g>
		<g>
			<path class="st0" d="M206.1,395.4c0-5.3-4.3-9.6-9.6-9.6c-5.3,0-9.6,4.3-9.6,9.6c0,0.1,0,0.2,0,0.3c0,0.1,0,0.2,0,0.4v46.5
				c0,3,2.4,5.4,5.4,5.4h8.3c3,0,5.4-2.4,5.4-5.4v-46.5c0-0.1,0-0.2,0-0.3C206.1,395.7,206.1,395.6,206.1,395.4z"/>
			<path class="st19" d="M192.4,443.3c-0.4,0-0.7-0.3-0.7-0.7l0-42.3c0-0.4,0.3-0.7,0.7-0.7h8.3c0.4,0,0.7,0.3,0.7,0.7v42.3
				c0,0.4-0.3,0.7-0.7,0.7H192.4z"/>
			<path class="st0" d="M216.2,438.8c0,3-2.4,5.4-5.4,5.4h-28.5c-3,0-5.4-2.4-5.4-5.4v-11.7c0-3,2.4-5.4,5.4-5.4h28.5
				c3,0,5.4,2.4,5.4,5.4V438.8z"/>
			<path class="st20" d="M182.3,439.5c-0.4,0-0.7-0.3-0.7-0.7v-11.7c0-0.4,0.3-0.7,0.7-0.7h28.5c0.4,0,0.7,0.3,0.7,0.7v11.7
				c0,0.4-0.3,0.7-0.7,0.7H182.3z"/>
			<path class="st21" d="M199.1,393.4c0,1.4-1.1,2.6-2.6,2.6c-1.4,0-2.6-1.1-2.6-2.6c0-1.4,1.1-2.6,2.6-2.6
				C198,390.8,199.1,392,199.1,393.4z"/>
		</g>
		<g>
			<path class="st0" d="M547.9,395.4c0-5.3-4.3-9.6-9.6-9.6c-5.3,0-9.6,4.3-9.6,9.6c0,0.1,0,0.2,0,0.3c0,0.1,0,0.2,0,0.3v46.5
				c0,3,2.4,5.4,5.4,5.4h8.3c3,0,5.4-2.4,5.4-5.4l0-46.5c0-0.1,0-0.2,0-0.3C547.9,395.7,547.9,395.6,547.9,395.4z"/>
			<path class="st19" d="M534.1,443.3c-0.4,0-0.7-0.3-0.7-0.7v-42.3c0-0.4,0.3-0.7,0.7-0.7h8.3c0.4,0,0.7,0.3,0.7,0.7v42.3
				c0,0.4-0.3,0.7-0.7,0.7H534.1z"/>
			<path class="st0" d="M558,438.8c0,3-2.4,5.4-5.4,5.4h-28.5c-3,0-5.4-2.4-5.4-5.4l0-11.7c0-3,2.4-5.4,5.4-5.4h28.5
				c3,0,5.4,2.4,5.4,5.4V438.8z"/>
			<path class="st20" d="M524.1,439.5c-0.4,0-0.7-0.3-0.7-0.7v-11.7c0-0.4,0.3-0.7,0.7-0.7h28.5c0.4,0,0.7,0.3,0.7,0.7v11.7
				c0,0.4-0.3,0.7-0.7,0.7H524.1z"/>
			<path class="st21" d="M540.9,393.4c0,1.4-1.1,2.6-2.6,2.6c-1.4,0-2.6-1.1-2.6-2.6c0-1.4,1.1-2.6,2.6-2.6
				C539.7,390.8,540.9,392,540.9,393.4z"/>
		</g>
		<g>
			<path class="st4" d="M141.1,457.9l-6.1-85c-0.4,0.5-0.8,1-1.2,1.5c-6.2,8-11.3,27.1-13.7,51.1c-1.1,10.8-1.5,22-1.3,32.3H141.1z"
				/>
		</g>
		<g>
			<path class="st0" d="M591.3,457.9l6.1-85c0.4,0.5,0.8,1,1.2,1.5c6.2,8,11.3,27.1,13.7,51.1c1.1,10.8,1.5,22,1.3,32.3H591.3z"/>
		</g>
		<g>
			<g>
				<path class="st22" d="M265.6,608.3c17.1-6.6,41.1-31,64.3-65.5c22-32.8,37.9-67.1,40.6-87.7l2.3,0.3
					c-5.9,44.3-67.8,140.4-106.4,155.1L265.6,608.3z"/>
			</g>
			<g>
				<path class="st22" d="M398.1,604.3c-0.2-1.3-1.3-4.4-3-8.9c-6.2-16.7-19-51.3-13.8-87.8c1.9-13.1-7.8-49.5-11.3-54.3l1.5-1.9
					c5,5.4,14.1,43.5,12.2,56.4c-5.1,35.9,7.6,70.2,13.7,86.7c2.1,5.6,3.1,8.5,3.2,10L398.1,604.3z"/>
			</g>
			<g>
				<path class="st22" d="M489.2,606.5c-0.9-0.7-2.9-2-5.8-3.8c-9.3-5.9-26.6-16.7-47.4-35.4c-31.8-28.7-50.6-72.8-60.7-96.5
					c-3.3-7.8-5.6-13.1-7-15.1l0-0.3l-0.1-2.7c2.1,0.6,4.1,5.1,9.2,17.3c10,23.5,28.6,67.4,60.1,95.7c20.6,18.6,37.8,29.4,47.1,35.2
					c4.4,2.7,6.1,3.8,6.8,4.7L489.2,606.5z"/>
			</g>
			<g>
				<path class="st22" d="M522.9,596.4c-5.9-1.6-36.5-19.4-54.1-31.5c-38.3-26.4-74-73.6-91.2-96.3c-5.2-6.9-9.1-12-10.8-13.6
					l1.4-1.9c1.7,1.5,5,5.9,11.2,14.1c17.1,22.6,52.7,69.7,90.7,95.8c19.8,13.7,48.1,29.5,53,31.1L522.9,596.4z"/>
			</g>
			<g>
				<path class="st22" d="M366.9,600.4c-13.9-8.9-13.6-21.4-8.4-41.4c0.6-2.4,1.5-5.2,2.3-8.2c4.8-16.6,12.1-41.8,10.2-68.5
					c-0.2-3.3-0.8-9.2-1.2-14.4l0-0.1c-0.5-5.7-1-11.7-1.3-15.2l2.3-0.1c0.2,3.6,0.8,9.7,1.3,15.2c0.5,5.8,1,11.2,1.2,14.5
					c1.8,27.1-5.5,52.5-10.3,69.2c-0.9,3-1.7,5.8-2.3,8.2c-5.2,19.7-5.5,30.6,7.3,38.8L366.9,600.4z"/>
			</g>
			<g>
				<path class="st23" d="M396.7,590.2c-8.9,0-19.4,7.5-19.4,17.5c0,7.9,5.5,15.7,11.9,18.1l0,0l18.8,11l13.2-36.2
					C421.1,600.6,402.8,590.2,396.7,590.2z"/>
				<g>
					<path class="st24" d="M407.1,609.1l-25.4-12.2c-2.5,3.2-4,7.3-4,11.8c0,0.6,0,1.2,0.1,1.8l25.4,12.3L407.1,609.1z"/>
				</g>
				<g>
					<path class="st23" d="M386.5,625.3c-0.1,0-0.2,0-0.3,0c-0.1,0-13.7-5-7.8-23.2c4.6-14.2,18.7-11.7,18.8-11.7
						c0.5,0.1,0.7,0.5,0.7,1c-0.1,0.5-0.5,0.8-1,0.7c-0.5-0.1-12.8-2.3-16.9,10.5c-2.3,7.1-1.8,12.8,1.4,17c2.3,3.1,5.3,4.2,5.4,4.2
						c0.4,0.2,0.7,0.6,0.5,1.1C387.2,625,386.8,625.3,386.5,625.3z"/>
				</g>
				<g>
					<path class="st13" d="M430.9,618.7c0,9.9-7.2,18-16.2,18c-8.9,0-16.2-8.1-16.2-18c0-9.9,7.2-18,16.2-18
						C423.7,600.7,430.9,608.8,430.9,618.7z"/>
					<path class="st23" d="M414.7,638.3c-9.8,0-17.7-8.8-17.7-19.5c0-10.8,7.9-19.5,17.7-19.5c9.8,0,17.7,8.8,17.7,19.5
						C432.4,629.5,424.5,638.3,414.7,638.3z M414.7,602.3c-8.1,0-14.7,7.4-14.7,16.5c0,9.1,6.6,16.5,14.7,16.5
						c8.1,0,14.7-7.4,14.7-16.5C429.4,609.7,422.8,602.3,414.7,602.3z"/>
				</g>
				<path class="st25" d="M427.6,618.7c0,7.9-5.8,14.4-12.9,14.4c-7.1,0-12.9-6.4-12.9-14.4c0-7.9,5.8-14.4,12.9-14.4
					C421.9,604.4,427.6,610.8,427.6,618.7z"/>
				<path class="st13" d="M423.8,618.7c0,5.6-4,10.1-9,10.1c-5,0-9-4.5-9-10.1c0-5.6,4-10.1,9-10.1
					C419.7,608.7,423.8,613.2,423.8,618.7z"/>
			</g>
			<g>
				<polygon class="st23" points="567.4,614.4 514.2,614.4 514.2,579 567.4,579.1 				"/>
				<rect x="514.2" y="587.1" class="st26" width="53.2" height="12.1"/>
				<g>
					<path class="st23" d="M567.4,614.2c-0.5,0-0.8-0.4-0.8-0.8v-33.5c0-0.5,0.4-0.8,0.8-0.8c0.5,0,0.8,0.4,0.8,0.8v33.5
						C568.2,613.8,567.9,614.2,567.4,614.2z"/>
				</g>
				<g>
					<path class="st23" d="M514.2,615.2c-0.5,0-0.8-0.4-0.8-0.8l0-34.5c0-0.5,0.4-0.8,0.8-0.8c0.5,0,0.8,0.4,0.8,0.8l0,34.5
						C515,614.8,514.6,615.2,514.2,615.2z"/>
				</g>
			</g>
			<g>
				<path class="st23" d="M496.2,595.8l0.2,0.6l-0.2,0.9c-0.3,0,0.3-0.1,0-0.1c-8,0-14.4,8.1-14.4,18c0,9.3,7.2,18.2,10.4,18.6
					l39,6.4l1.9-37.3C533.1,602.9,496.9,595.9,496.2,595.8z"/>
				<g>
					<path class="st24" d="M530.6,615.3l-47.6-7.5c-0.8,2.2-1.2,4.7-1.2,7.3c0,1.8,0.2,3.5,0.6,5.2l48.2,8.3V615.3z"/>
				</g>
				<g>
					<path class="st24" d="M546.1,621.3c0,9.9-6.5,18-14.4,18c-8,0-14.4-8.1-14.4-18c0-9.9,6.5-18,14.4-18
						C539.6,603.3,546.1,611.3,546.1,621.3z"/>
					<path class="st23" d="M531.6,640.8c-8.8,0-16-8.8-16-19.5c0-10.8,7.2-19.5,16-19.5c8.8,0,16,8.8,16,19.5
						C547.6,632,540.4,640.8,531.6,640.8z M531.6,604.8c-7.1,0-12.9,7.4-12.9,16.5c0,9.1,5.8,16.5,12.9,16.5
						c7.1,0,12.9-7.4,12.9-16.5C544.5,612.2,538.7,604.8,531.6,604.8z"/>
				</g>
				<path class="st25" d="M542.3,621.3c0,7.9-4.3,14.4-10.7,14.4c-6.4,0-10.7-6.4-10.7-14.4c0-7.9,4.3-14.4,10.7-14.4
					C538,606.9,542.3,613.3,542.3,621.3z"/>
				<path class="st24" d="M538.8,621.3c0,5.6-2.8,10.1-7.2,10.1c-4.5,0-7.2-4.5-7.2-10.1c0-5.6,2.8-10.1,7.2-10.1
					C536.1,611.2,538.8,615.7,538.8,621.3z"/>
				<g>
					<path class="st23" d="M492.2,634c-0.1,0-0.2,0-0.3,0c-0.1,0-12.5-3.1-11.5-20.8c0.8-13.8,10.7-17.5,15.9-17.5c0,0,0,0,0,0
						c0.8,0,1.5,0.7,1.5,1.5c0,0.8-0.7,1.5-1.5,1.5l0,0c-0.5,0-12,0.2-12.8,14.6c-0.9,15.1,8.8,17.6,9.2,17.7c0.8,0.2,1.3,1,1.1,1.8
						C493.5,633.5,492.9,634,492.2,634z"/>
				</g>
			</g>
			<g>
				<path class="st23" d="M373,592.4l0.1,0.3l-0.2,0.1c0.3,0,0,0.4,0.3,0.5c7.9,0.1,15,8.4,15.9,18.4c0.8,9.5-3,17.7-10.1,18.6
					l-35.1,6.5l-6-39.3C337.7,597.4,372.4,592.5,373,592.4z"/>
				<g>
					<path class="st13" d="M340.9,611.2l46.3-7c1,2.3,1.7,4.8,1.9,7.4c0.2,1.8,0.1,3.6-0.1,5.2l-46.8,7.8L340.9,611.2z"/>
				</g>
				<g>
					<path class="st27" d="M326.2,617c0.9,10.1,8,18.3,15.9,18.4c7.9,0.1,13.5-8,12.7-18.1c-0.9-10.1-8-18.3-15.9-18.4
						C330.9,598.8,325.3,606.9,326.2,617z"/>
					<path class="st23" d="M342.2,636.9C342.2,636.9,342.2,636.9,342.2,636.9l-0.2,0c-8.6-0.1-16.4-9-17.4-19.8
						c-0.5-6.1,1.1-11.7,4.6-15.4c2.5-2.8,5.9-4.3,9.4-4.3l0.2,0c8.6,0.1,16.4,9,17.4,19.8c0.5,6.1-1.1,11.7-4.6,15.4
						C349.1,635.4,345.7,636.9,342.2,636.9z M338.7,600.4c-2.7,0-5.2,1.1-7.2,3.3c-2.9,3.1-4.3,7.9-3.8,13.1
						c0.8,9.3,7.3,17,14.4,17.1l0.1,0c0,0,0,0,0,0c2.7,0,5.2-1.1,7.2-3.3c2.9-3.1,4.3-7.9,3.8-13.1c-0.8-9.3-7.3-17-14.4-17.1
						L338.7,600.4z"/>
				</g>
				<path class="st23" d="M329.9,617c0.7,8,5.5,14.6,11.8,14.7c6.3,0.1,10-6.4,9.2-14.4c-0.9-10.3-7.4-14.6-11.8-14.7
					C332.9,602.5,329.2,609,329.9,617z"/>
				<path class="st27" d="M333.3,617.1c0.5,5.6,3.6,10.2,8,10.3c4.4,0.1,6.7-4.5,6.2-10.1c-0.5-5.6-3.6-10.2-8-10.3
					C335.1,606.9,332.8,611.4,333.3,617.1z"/>
				<g>
					<path class="st23" d="M380.3,629.9c-0.4,0-0.7-0.3-0.8-0.7c-0.1-0.5,0.2-0.9,0.6-1c0.4-0.1,10.1-2.5,7.8-18.5
						c-2.2-15.4-14.6-15.7-14.8-15.7c-0.5,0-0.8-0.4-0.8-0.8c0-0.5,0.4-0.9,0.8-0.8c0.1,0,14,0.4,16.4,17.2
						c2.5,17.5-9,20.3-9.1,20.4C380.4,629.9,380.3,629.9,380.3,629.9z"/>
				</g>
			</g>
			<g>
				<path class="st23" d="M288.7,622.5l-9.2-15.3c0,0-4.9-7.2-18-2.5c-10.2,3.6-10.7,13.2-10.7,13.2l2.7,18.6L288.7,622.5z"/>
				<g>
					<path class="st24" d="M275.3,619.7l-9-16.3c-1.5,0.2-3.1,0.6-4.8,1.2c-2.1,0.7-3.7,1.7-5,2.8l2.6,17.7L275.3,619.7z"/>
				</g>
				<g>
					<path class="st24" d="M290.7,633.7c0,9.9-8.1,18-18,18c-9.9,0-18-8.1-18-18c0-9.9,8.1-18,18-18
						C282.7,615.7,290.7,623.7,290.7,633.7z"/>
					<path class="st23" d="M272.7,653.2c-10.8,0-19.5-8.8-19.5-19.5c0-10.8,8.8-19.5,19.5-19.5c10.8,0,19.5,8.8,19.5,19.5
						C292.3,644.4,283.5,653.2,272.7,653.2z M272.7,617.2c-9.1,0-16.5,7.4-16.5,16.5c0,9.1,7.4,16.5,16.5,16.5
						c9.1,0,16.5-7.4,16.5-16.5C289.2,624.6,281.8,617.2,272.7,617.2z"/>
				</g>
				<path class="st25" d="M287.1,633.7c0,7.9-6.4,14.4-14.4,14.4c-7.9,0-14.4-6.4-14.4-14.4c0-7.9,6.4-14.4,14.4-14.4
					C280.7,619.3,287.1,625.8,287.1,633.7z"/>
				<path class="st24" d="M282.8,633.7c0,5.6-4.5,10.1-10.1,10.1s-10.1-4.5-10.1-10.1c0-5.6,4.5-10.1,10.1-10.1
					S282.8,628.1,282.8,633.7z"/>
				<g>
					<path class="st23" d="M251.5,618.7C251.5,618.7,251.5,618.7,251.5,618.7c-0.5,0-0.9-0.4-0.8-0.9c0-0.1,0.6-10.2,9.8-13.7
						c13.4-5,18.6,2.5,18.9,2.9c0.3,0.4,0.2,0.9-0.2,1.2c-0.4,0.3-0.9,0.2-1.2-0.2c-0.2-0.3-4.8-6.7-16.9-2.2
						c-8.2,3-8.7,11.8-8.7,12.2C252.3,618.3,252,618.7,251.5,618.7z"/>
				</g>
			</g>
			<path class="st22" d="M197,613.9c7.5-2.5,47.9-30.1,73-52.9c43.9-39.9,77-75.4,98.6-105.5l3-0.3c-21.6,30.7-55.3,66.9-100,107.5
				c-24.6,22.3-66.1,51.1-74.1,53.5L197,613.9z"/>
			<g>
				<path class="st23" d="M212.3,588.4c9.3,0.7,17.5,9.6,17.3,19.2c-0.1,7.7-2.2,13.5-8.9,15.4l-22.9,9.8L186.8,596
					C186.8,596,205.9,587.9,212.3,588.4z"/>
				<g>
					<path class="st28" d="M199.6,605.9l26.5-9.9c2.5,3.2,4,7.3,3.9,11.6c0,0.6-0.1,1.2-0.1,1.7l-26.5,10L199.6,605.9z"/>
				</g>
				<g>
					<path class="st23" d="M220.7,623c-0.4,0-0.7-0.3-0.8-0.6c-0.1-0.4,0.2-0.9,0.6-1c0,0,4.6-1.2,7.1-5.6c2-3.6,2.1-8.4,0.2-14.2
						c-4.1-12.7-16.9-11.5-17.4-11.5c-0.5,0-0.9-0.3-0.9-0.7c0-0.5,0.3-0.9,0.7-0.9c0.1,0,14.7-1.4,19.2,12.6
						c2,6.2,1.9,11.5-0.4,15.5c-2.8,5.1-7.9,6.4-8.1,6.4C220.8,623,220.8,623,220.7,623z"/>
				</g>
				<g>
					<path class="st24" d="M174.8,613.4c-0.2,9.6,7.2,17.9,16.4,18.6c9.3,0.7,16.9-6.6,17.1-16.2c0.2-9.6-7.2-17.9-16.4-18.6
						C182.6,596.6,175,603.8,174.8,613.4z"/>
					<path class="st23" d="M192.4,633.5C192.4,633.5,192.4,633.5,192.4,633.5c-0.4,0-0.8,0-1.3,0c-10-0.7-18-9.7-17.9-20.1
						c0.2-10.4,8.5-18.4,18.7-17.7c10,0.7,18,9.7,17.9,20.1C209.6,625.8,202,633.5,192.4,633.5z M190.7,598.7
						c-7.9,0-14.2,6.5-14.4,14.7c-0.2,8.8,6.6,16.4,15,17c8.4,0.6,15.3-6.1,15.4-14.7c0.2-8.8-6.6-16.4-15-17
						C191.4,598.7,191,598.7,190.7,598.7z"/>
				</g>
				<path class="st25" d="M178.2,613.7c-0.1,7.6,5.7,14.3,13.1,14.8c7.4,0.5,13.5-5.2,13.6-12.9c0.1-7.6-5.7-14.3-13.1-14.8
					C184.4,600.2,178.3,606,178.2,613.7z"/>
				<path class="st24" d="M182.2,613.9c-0.1,5.4,4,10,9.2,10.4c5.2,0.4,9.4-3.7,9.5-9c0.1-5.4-4-10-9.2-10.4
					C186.6,604.5,182.3,608.6,182.2,613.9z"/>
			</g>
		</g>
		<rect x="362.8" y="397.4" class="st29" width="13.9" height="60.5"/>
		<polygon class="st4" points="462.1,417.7 266.7,412.1 277.8,284.6 458.6,285.2 		"/>
		
			<rect x="305.1" y="253.5" transform="matrix(2.935001e-02 -0.9996 0.9996 2.935001e-02 11.8889 700.007)" class="st30" width="122.6" height="180.8"/>
		<polygon class="st0" points="455,407.8 456.5,354.1 362.3,346.6 277.8,279.9 274.2,402.5 		"/>
		<g>
			<g>
				<g>
					<path class="st31" d="M322,310.2c7.2,0.6,14.8,0.8,21.6-1.9c3.6-1.4,2-7.2-1.6-5.8c-6.3,2.5-13.3,2.2-20,1.7
						C318.1,303.8,318.2,309.8,322,310.2L322,310.2z"/>
				</g>
				<g>
					<path class="st31" d="M330.4,308.3c0.1,4.9,1.6,9.6,2.1,14.4c0.1,1.1,0,7.8-2.2,6.8c-1.9-0.9-3-3.5-3.5-5.4
						c-1-3.8-6.8-2.2-5.8,1.6c1.3,5.2,8.4,14.3,14.2,8.2c6.9-7.2,1.5-17.1,1.4-25.6C336.4,304.4,330.3,304.4,330.4,308.3
						L330.4,308.3z"/>
				</g>
				<g>
					<path class="st31" d="M348.8,304c-4.4,7.6-4.1,27.6,6.8,29.9c11.6,2.5,13.3-20,11.7-27c-0.8-3.8-6.7-2.2-5.8,1.6
						c0.7,3-0.1,20.4-5,19.4c-3.3-0.7-3.7-7.9-3.9-10.4c-0.2-3.3-0.3-7.5,1.4-10.5C355.9,303.7,350.7,300.6,348.8,304L348.8,304z"/>
				</g>
				<g>
					<path class="st31" d="M385.9,310.9c-2.5-2.8-6.1-4.3-9.8-3c-3.7,1.3-6,5.6-5.1,9.3c0.9,3.6,5.4,5.3,8.2,7.1
						c2.6,1.7,5.7,6.1,1.2,7.5c-2.4,0.7-4.5-1.5-5.4-3.4c-1.6-3.5-6.8-0.5-5.2,3.1c3.8,8.3,16.6,8.7,19.1-0.9
						c1.2-4.7-3.3-9-6.6-11.5c-1.6-1.2-3.4-1.8-4.9-3.1c-1.1-0.9,0-2.2,1.1-2.6c1.2-0.4,2.5,1,3.1,1.7
						C384.2,318.1,388.5,313.8,385.9,310.9L385.9,310.9z"/>
				</g>
				<g>
					<path class="st31" d="M402.2,305.9c-6.8,8.5-8.5,19.8-6.2,30.3c0.8,3.8,3.4,7.3,7.6,7.1c4.5-0.3,6.8-6.1,7.8-9.8
						c1-3.8-4.8-5.4-5.8-1.6c-0.2,0.9-2,6.3-3,4.8c-1.3-1.9-1.3-5-1.5-7.2c-0.7-6.5,1.3-14.2,5.4-19.3
						C408.9,307.2,404.6,302.9,402.2,305.9L402.2,305.9z"/>
				</g>
				<g>
					<path class="st31" d="M388.5,319.2c2.4,1.5,5.3,1.6,8,1.8c4.2,0.3,8.4,1.1,12.6,0.6c3.8-0.4,3.9-6.5,0-6.1
						c-3.4,0.4-6.5-0.2-9.9-0.5c-2.4-0.2-5.6,0.2-7.7-1.1C388.3,311.9,385.3,317.1,388.5,319.2L388.5,319.2z"/>
				</g>
			</g>
			<g>
				<g>
					<path class="st31" d="M293.5,373.5c2.2-4,3.3-8.3,4.5-12.6c1.3-4.8,2.9-9.3,3-14.3c-1.7,0.7-3.4,1.4-5.2,2.1
						c4.1,4.2,3.3,12.1,6,17.2c0.8,1.5,2.7,1.8,4.1,1.1c5.8-3.2,6.8-10.3,9.5-15.7c-1.9-0.5-3.8-1-5.6-1.5c0.4,3.7,0.4,7.5,1.1,11.3
						c0.8,4.4,2.2,8.6,2.6,13.1c0.3,3.9,6.4,3.9,6.1,0c-0.3-3.4-1-6.6-1.8-9.8c-1.2-4.8-1.3-9.6-1.9-14.5c-0.3-2.7-4.1-4.5-5.6-1.5
						c-2.1,4.2-3,11.2-7.4,13.5c1.4,0.4,2.8,0.7,4.1,1.1c-3.1-5.9-2-13.3-6.9-18.4c-1.9-1.9-5.1-0.5-5.2,2.1c0,3.9-1.2,7.6-2.3,11.3
						c-1.3,4.2-2.1,8.6-4.3,12.6C286.4,373.9,291.6,376.9,293.5,373.5L293.5,373.5z"/>
				</g>
				<g>
					<path class="st31" d="M327.6,374.7c2.1-3.7,1.8-8.2,3-12.3c1.4-4.9,3.1-9.9,5.7-14.3c-1.8-0.2-3.7-0.5-5.5-0.7
						c1.3,4.5,2.9,8.9,4.2,13.4c1.3,4.8,1.3,9.9,2.5,14.7c0.9,3.8,6.7,2.2,5.8-1.6c-1.1-4.9-1.3-9.8-2.5-14.7
						c-1.1-4.6-2.9-8.9-4.2-13.4c-0.7-2.5-4.2-3-5.5-0.7c-2.3,4-3.6,8.1-5.2,12.4c-0.8,2.2-1.5,4.4-2,6.7c-0.6,2.4-0.2,5.2-1.5,7.4
						C320.4,375,325.6,378,327.6,374.7L327.6,374.7z"/>
				</g>
				<g>
					<path class="st31" d="M328.7,367.3c3.3,1,7.1,1.9,10.5,1c3.8-1,2.2-6.8-1.6-5.8c-2.3,0.6-5.1-0.4-7.3-1
						C326.5,360.4,324.9,366.2,328.7,367.3L328.7,367.3z"/>
				</g>
				<g>
					<path class="st31" d="M352.5,377.8c0.6-4.4,0.7-8.7,0.5-13.1c-0.1-2.3-0.4-4.6-0.5-7c-0.1-1.2-0.1-2.4-0.1-3.6
						c0-0.6,0-1.2,0.1-1.8c0.7-1.9,0.5-2.4-0.6-1.5c7.3,0,8.9,9.5,1,10.4c-3.1,0.3-4,3.8-1.5,5.6c3.3,2.5,5.9,5.7,8.3,9.1
						c2.2,3.2,7.5,0.1,5.2-3.1c-3-4.3-6.2-8.1-10.4-11.3c-0.5,1.9-1,3.8-1.5,5.6c5.1-0.6,9.2-2.7,11.1-7.7c1.7-4.4-0.9-9.9-4.6-12.4
						c-3-2-11.2-4.8-12.4,0.8c-2,9.2,0.9,18.8-0.4,28.2C346.1,380,352,381.6,352.5,377.8L352.5,377.8z"/>
				</g>
				<g>
					<path class="st31" d="M374.2,379.2c0.6-4.4,0.7-8.7,0.5-13.1c-0.1-2.3-0.4-4.6-0.5-7c-0.1-1.2-0.1-2.4-0.1-3.6
						c0-0.6,0-1.2,0.1-1.8c0.7-1.9,0.5-2.4-0.6-1.5c7.3,0,8.9,9.5,1,10.4c-3.1,0.3-4,3.8-1.5,5.6c3.3,2.5,5.9,5.7,8.3,9.1
						c2.2,3.2,7.5,0.1,5.2-3.1c-3-4.3-6.2-8.1-10.4-11.3c-0.5,1.9-1,3.8-1.5,5.6c5.1-0.6,9.2-2.7,11.1-7.7c1.7-4.4-0.9-9.9-4.6-12.4
						c-3-2-11.2-4.8-12.4,0.8c-2,9.2,0.9,18.8-0.4,28.2C367.8,381.4,373.6,383.1,374.2,379.2L374.2,379.2z"/>
				</g>
				<g>
					<path class="st31" d="M396.6,378c2.3-7.7,0.8-15.5,1.6-23.4c0.4-3.9-5.7-3.8-6.1,0c-0.7,7.3,0.8,14.6-1.3,21.7
						C389.6,380.1,395.5,381.7,396.6,378L396.6,378z"/>
				</g>
				<g>
					<path class="st31" d="M404.1,353.5c-1.8,7.5,0.1,14.9-0.5,22.4c-0.5,6.7,9.7,4.5,13.5,4.8c3.9,0.3,3.9-5.8,0-6.1
						c-2.2-0.1-4.3-0.1-6.5,0c-1.8-0.5-2.1-0.1-1,1.3c0-1.2,0.1-2.4,0.1-3.6c0-5.8-1.2-11.5,0.2-17.2
						C410.9,351.3,405.1,349.7,404.1,353.5L404.1,353.5z"/>
				</g>
				<g>
					<path class="st31" d="M405.7,369.4c4.2,2,7.9,1,12.3,0.2c3.8-0.7,2.2-6.5-1.6-5.8c-2.4,0.4-5.2,1.6-7.6,0.4
						C405.2,362.5,402.2,367.7,405.7,369.4L405.7,369.4z"/>
				</g>
				<g>
					<path class="st31" d="M404.1,357.2c4,0.5,8,0.8,12.1,0.3c3.8-0.5,3.9-6.5,0-6.1c-4,0.5-8,0.1-12.1-0.3
						C400.2,350.7,400.3,356.8,404.1,357.2L404.1,357.2z"/>
				</g>
				<g>
					<path class="st31" d="M426.1,355.4c-0.6,5.6-0.4,11.2-0.2,16.9c0.1,3.1-0.9,7.6,1.6,10.1c3.9,3.9,13.6-0.1,16.3-3.9
						c7.9-11.4-1.5-27.9-15.4-25.9c-3.9,0.5-2.2,6.4,1.6,5.8c8.3-1.2,14.9,12.2,8,17.5c-1.3,1-3.3,1.4-4.8,1.8
						c-1.6,0.5-2,0.4-1.2-0.3c0-1.7,0-3.4,0-5c-0.1-5.6-0.3-11.2,0.2-16.9C432.6,351.5,426.5,351.6,426.1,355.4L426.1,355.4z"/>
				</g>
			</g>
		</g>
		<path class="st16" d="M470.9,489c10.1,0,12.8-11.1,12.8-18.2s-3.2-12.9-10.8-12.9s27.1,0,27.1,0V489l-9.2,8L470.9,489z"/>
		<path class="st16" d="M204.5,489c10.1,0,12.8-11.1,12.8-18.2c0-7.1-3.2-12.9-10.8-12.9s27.1,0,27.1,0V489l-9.2,8L204.5,489z"/>
	</g>
	<path class="st31" d="M53.3,199.8c-1.5-5.4,0.9-14,7.6-14.1c5.4-0.1,13.4,5.6,18.1,8.3c-2.2-10.3-3.1-17.6,2.3-21.7
		c4.9-3.7,12.3-1.4,15.2,3c7.2,11.1,12.2,41.1,8.2,53.3C104.7,228.6,58.8,218.9,53.3,199.8z"/>
	<path class="st31" d="M608.7,213.9c5.2-2.2,13.9-0.9,14.9,5.7c0.8,5.3-3.8,13.9-5.9,18.9c9.8-3.4,16.9-5.3,21.7-0.5
		c4.3,4.4,3,11.9-1.1,15.3c-10,8.5-39,17.2-51.4,14.7C586.8,268,590.6,221.6,608.7,213.9z"/>
	<path class="st31" d="M132.3,107.9c-0.1-4.2,3.2-9.8,8.1-8.7c3.9,0.9,8.6,6.5,11.4,9.4c0.4-7.8,1.1-13.2,5.7-15.1
		c4.2-1.7,9,1.3,10.3,5c3.1,9.3,1,31.8-4.1,39.7C163.6,138.1,132.6,122.5,132.3,107.9z"/>
	<path class="st31" d="M397.1,73.2c1.8-3.6,7.2-7,10.8-3.8c2.9,2.5,4.4,9.4,5.6,13.1c3.8-6.5,6.8-10.8,11.7-10.4
		c4.4,0.4,7.2,5.1,6.6,8.9c-1.5,9.3-13.4,27.6-21.3,32.1C410.4,113.2,390.8,85.9,397.1,73.2z"/>
	<path class="st31" d="M47.4,488.1c-3.6,1.8-9.9,1.3-10.9-3.4c-0.8-3.8,2.1-10.2,3.4-13.9c-6.9,2.9-11.9,4.6-15.6,1.3
		c-3.3-2.9-2.7-8.4,0.1-11.1c6.8-6.6,27.2-14.2,36.3-13C60.6,448.2,60,481.7,47.4,488.1z"/>
	<path class="st31" d="M719.5,455.6c2.3,3.3,2.6,9.7-1.9,11.3c-3.6,1.3-10.4-0.7-14.2-1.5c3.8,6.5,6.2,11.2,3.4,15.2
		c-2.5,3.7-8,3.8-11,1.4c-7.4-5.8-17.7-25-17.8-34.2C678.2,448,711.5,444,719.5,455.6z"/>
	<path class="st31" d="M677.2,248.3c3.6-0.2,8.5,2.5,7.6,6.6c-0.7,3.4-5.3,7.5-7.7,10c6.6,0.1,11.3,0.6,13,4.5
		c1.6,3.5-0.8,7.7-4,8.9c-7.8,2.9-27,1.7-33.9-2.5C652.2,275.9,664.7,249,677.2,248.3z"/>
	<path class="st31" d="M297.7,24.6c0.6-5.6,6.1-12.5,12.3-10.1c5,1.9,10.2,10.2,13.5,14.5c1.9-10.2,3.8-17.3,10.3-19.1
		c5.9-1.6,11.8,3.3,12.8,8.5c2.5,12.9-4.3,42.4-12.6,52C334,70.3,295.5,44.1,297.7,24.6z"/>
	<path class="st31" d="M651.7,148.6c2.2-0.9,5.8-0.4,6.3,2.4c0.3,2.2-1.6,5.9-2.5,8c4.1-1.4,7.1-2.2,9.1-0.2c1.8,1.8,1.2,5-0.5,6.4
		c-4.2,3.6-16.4,7.2-21.7,6.2C642.5,171.4,644.1,151.9,651.7,148.6z"/>
	<path class="st31" d="M35.1,418.2c-2.4-0.2-5.3-2.5-4.3-5.1c0.8-2.1,4.2-4.4,6-5.8c-4.3-0.7-7.3-1.5-8.1-4.2
		c-0.7-2.5,1.3-5,3.5-5.4c5.4-1.1,17.9,1.5,22,4.9C54.1,402.6,43.3,419,35.1,418.2z"/>
	<path class="st31" d="M69,270.3c-1.4-2.4-1.2-6.8,1.9-7.6c2.6-0.7,7.1,1.1,9.6,1.8c-2.2-4.6-3.6-8-1.5-10.6
		c1.9-2.4,5.7-2.1,7.6-0.3c4.7,4.4,10.7,18.1,10.2,24.4C96.9,277.9,73.9,278.7,69,270.3z"/>
	<path class="st31" d="M444.9,92.5c2.4-1.2,6.6-0.9,7.3,2.2c0.6,2.5-1.4,6.8-2.2,9.2c4.6-1.9,7.9-3,10.3-0.9c2.2,1.9,1.8,5.6,0,7.3
		c-4.5,4.4-18,9.4-24,8.6C436.2,119,436.5,96.7,444.9,92.5z"/>
	<path class="st31" d="M21.5,299.3c-3-2.1-5.2-7.5-1.8-10.2c2.7-2.2,9.1-2.6,12.6-3.1c-5.2-4.3-8.7-7.7-7.6-12
		c1-3.9,5.6-5.7,8.9-4.6c8.1,2.7,22.8,16,25.6,23.8C59.2,293.3,31.9,306.8,21.5,299.3z"/>
	<path class="st31" d="M329.9,130.3c0-2.7,2.1-6.3,5.2-5.6c2.5,0.6,5.5,4.2,7.3,6c0.2-5,0.7-8.4,3.7-9.7c2.7-1.1,5.8,0.8,6.6,3.2
		c2,5.9,0.6,20.3-2.7,25.4C349.9,149.7,330,139.7,329.9,130.3z"/>
	<path class="st31" d="M702.1,369.8c2.4,1.2,4.5,4.8,2.4,7.2c-1.7,1.9-6.3,2.8-8.8,3.5c4.2,2.6,7.1,4.6,6.7,7.9
		c-0.3,2.9-3.5,4.7-6,4.2c-6.2-1.1-18.2-9.2-21-14.5C675.5,378.1,693.7,365.5,702.1,369.8z"/>
	<path class="st13" d="M242.8,497.2c0,5.1-4.1,9.2-9.2,9.2l0,0c-5.1,0-9.2-4.1-9.2-9.2v-70.1c0-5.1,4.1-9.2,9.2-9.2l0,0
		c5.1,0,9.2,4.1,9.2,9.2L242.8,497.2z"/>
	<path class="st13" d="M509.3,497.2c0,5.1-4.1,9.2-9.2,9.2l0,0c-5.1,0-9.2-4.1-9.2-9.2v-70.1c0-5.1,4.1-9.2,9.2-9.2l0,0
		c5.1,0,9.2,4.1,9.2,9.2V497.2z"/>
	<path class="st0" d="M507.3,454.6c0-4.2,0-27.4,0-27.4c0-3.8-3.1-6.9-6.9-6.9c-0.9,0-1.8,0.2-2.7,0.5c2.5,1,4.2,3.5,4.2,6.4
		c0,0,0,22.5,0,27.6C502,460,507.3,458.9,507.3,454.6z"/>
	<path class="st0" d="M240.5,454.6c0-4.2,0-27.4,0-27.4c0-3.8-3.1-6.9-6.9-6.9c-0.9,0-1.8,0.2-2.7,0.5c2.5,1,4.2,3.5,4.2,6.4
		c0,0,0,22.5,0,27.6C235.2,460,240.5,458.9,240.5,454.6z"/>
</g>
</svg>
